<svg width="24" height="24" viewBox="0 0 24 24" fill="none" xmlns="http://www.w3.org/2000/svg">
<path d="M14.9111 3.35C16.9483 2.7667 19.2665 3.00344 20.5991 3.40094C20.9966 4.73354 21.2333 7.05166 20.65 9.08886M14.9111 3.35C13.9569 3.62322 13.0643 4.07636 12.3635 4.77717C11.6794 5.46129 10.9384 6.34417 10.2072 7.31203M14.9111 3.35L20.65 9.08886M20.65 9.08886C20.3768 10.0431 19.9236 10.9357 19.2228 11.6365C18.5387 12.3206 17.6558 13.0616 16.688 13.7928M10.2072 7.31203L7.19871 6.74926C6.38595 6.59722 5.55159 6.97528 5.11442 7.69368L3 11.1683L7.18044 11.9049M10.2072 7.31203C9.0983 8.77981 8.0119 10.443 7.18044 11.9049M7.18044 11.9049C6.65666 12.8258 6.23406 13.6668 5.97074 14.3286C5.74153 14.9047 5.93863 15.5162 6.36729 15.9448L8.05517 17.6327C8.48383 18.0614 9.09527 18.2585 9.67141 18.0293C10.3333 17.766 11.1742 17.3434 12.0951 16.8196M12.0951 16.8196L12.8317 21L16.3063 18.8856C17.0247 18.4484 17.4028 17.614 17.2507 16.8013L16.688 13.7928M12.0951 16.8196C13.5569 15.9881 15.2202 14.9017 16.688 13.7928M4.39274 18.198L3.68812 20.3119L5.80197 19.6073M16.5 9.5C16.5 10.6046 15.6046 11.5 14.5 11.5C13.3954 11.5 12.5 10.6046 12.5 9.5C12.5 8.39543 13.3954 7.5 14.5 7.5C15.6046 7.5 16.5 8.39543 16.5 9.5Z" stroke="var(--icon-stroke)" stroke-width="var(--icon-stroke-width)" stroke-linecap="round" stroke-linejoin="round"/>
</svg>
