<svg width="24" height="24" viewBox="0 0 24 24" fill="none" xmlns="http://www.w3.org/2000/svg">
<path d="M8.23507 7C9.18889 5.1405 10.865 3.66355 12 3C13.135 3.66355 14.8111 5.1405 15.7649 7M8.23507 7C7.7883 7.871 7.5 8.82593 7.5 9.82051C7.5 10.1898 7.51347 10.5853 7.5387 11H16.4613C16.4865 10.5853 16.5 10.1898 16.5 9.82051C16.5 8.82593 16.2117 7.871 15.7649 7M8.23507 7H15.7649" stroke="var(--icon-stroke)" stroke-width="var(--icon-stroke-width)" stroke-linecap="round" stroke-linejoin="round"/>
<path d="M3.73507 17C4.68889 15.1405 6.36498 13.6636 7.5 13C8.63502 13.6636 10.3111 15.1405 11.2649 17M3.73507 17C3.2883 17.871 3 18.8259 3 19.8205C3 20.1898 3.01347 20.5853 3.0387 21H11.9613C11.9865 20.5853 12 20.1898 12 19.8205C12 18.8259 11.7117 17.871 11.2649 17M3.73507 17H11.2649" stroke="var(--icon-stroke)" stroke-width="var(--icon-stroke-width)" stroke-linecap="round" stroke-linejoin="round"/>
<path d="M12.7351 17C13.6889 15.1405 15.365 13.6636 16.5 13C17.635 13.6636 19.3111 15.1405 20.2649 17M12.7351 17C12.2883 17.871 12 18.8259 12 19.8205C12 20.1898 12.0135 20.5853 12.0387 21H20.9613C20.9865 20.5853 21 20.1898 21 19.8205C21 18.8259 20.7117 17.871 20.2649 17M12.7351 17H20.2649" stroke="var(--icon-stroke)" stroke-width="var(--icon-stroke-width)" stroke-linecap="round" stroke-linejoin="round"/>
</svg>
