<svg width="24" height="24" viewBox="0 0 24 24" fill="none" xmlns="http://www.w3.org/2000/svg">
<path d="M7.5 10.7141L12 13.2859M7.5 10.7141L3 13.2859M7.5 10.7141V5.57175M12 13.2859V18.4283L16.5 21M12 13.2859L7.5 15.8576M12 13.2859L16.5 10.7141V5.57175M12 13.2859V8.14125L16.5 5.57175M12 13.2859L16.5 15.8565M3 13.2859V18.4283L7.5 21M3 13.2859L7.5 15.8576M7.5 5.57175L12 3L16.5 5.57175M7.5 5.57175L12 8.14238M7.5 15.8576V21M16.5 15.8565L21 13.2848M16.5 15.8565V21M12 18.4271L7.5 21M16.5 21L21 18.4283V13.2848M16.5 10.713L21 13.2848" stroke="var(--icon-stroke)" stroke-width="var(--icon-stroke-width)" stroke-linecap="round" stroke-linejoin="round"/>
</svg>
