<svg xmlns="http://www.w3.org/2000/svg" xmlns:xlink="http://www.w3.org/1999/xlink"><symbol fill="none" viewBox="0 0 24 24" id="icon-add" xmlns="http://www.w3.org/2000/svg"><path d="M12 5v14m-7-7h14" stroke="var(--icon-stroke)" stroke-width="var(--icon-stroke-width)" stroke-linecap="round" stroke-linejoin="round"/></symbol><symbol fill="none" viewBox="0 0 24 24" id="icon-box" xmlns="http://www.w3.org/2000/svg"><path d="M20 7.5 12 3 4 7.5m16 0v9L12 21m8-13.5L12 12m0 9-8-4.5v-9M12 21v-9M4 7.5l8 4.5" stroke="var(--icon-stroke)" stroke-width="var(--icon-stroke-width)" stroke-linecap="round" stroke-linejoin="round"/></symbol><symbol fill="none" viewBox="0 0 24 24" id="icon-brand-github" xmlns="http://www.w3.org/2000/svg"><path fill="var(--icon-stroke)" d="M12 .297c-6.63 0-12 5.373-12 12 0 5.303 3.438 9.8 8.205 11.385.6.113.82-.258.82-.577 0-.285-.01-1.04-.015-2.04-3.338.724-4.042-1.61-4.042-1.61C4.422 18.07 3.633 17.7 3.633 17.7c-1.087-.744.084-.729.084-.729 1.205.084 1.838 1.236 1.838 1.236 1.07 1.835 2.809 1.305 3.495.998.108-.776.417-1.305.76-1.605-2.665-.3-5.466-1.332-5.466-5.93 0-1.31.465-2.38 1.235-3.22-.135-.303-.54-1.523.105-3.176 0 0 1.005-.322 3.3 1.23.96-.267 1.98-.399 3-.405 1.02.006 2.04.138 3 .405 2.28-1.552 3.285-1.23 3.285-1.23.645 1.653.24 2.873.12 3.176.765.84 1.23 1.91 1.23 3.22 0 4.61-2.805 5.625-5.475 5.92.42.36.81 1.096.81 2.22 0 1.606-.015 2.896-.015 3.286 0 .315.21.69.825.57C20.565 22.092 24 17.592 24 12.297c0-6.627-5.373-12-12-12"/></symbol><symbol fill="none" viewBox="0 0 24 24" id="icon-case" xmlns="http://www.w3.org/2000/svg"><path d="M3 13v5a2 2 0 0 0 2 2h14a2 2 0 0 0 2-2v-5M3 13V9a2 2 0 0 1 2-2h3m-5 6c6 3 12 3 18 0m0 0V9a2 2 0 0 0-2-2h-3M8 7V5a2 2 0 0 1 2-2h4a2 2 0 0 1 2 2v2M8 7h8m-4 5v.01" stroke="var(--icon-stroke)" stroke-width="var(--icon-stroke-width)" stroke-linecap="round" stroke-linejoin="round"/></symbol><symbol fill="none" viewBox="0 0 24 24" id="icon-checkmark" xmlns="http://www.w3.org/2000/svg"><path d="m5 12 5 5L20 7" stroke="var(--icon-stroke)" stroke-width="var(--icon-stroke-width)" stroke-linecap="round" stroke-linejoin="round"/></symbol><symbol fill="none" viewBox="0 0 24 24" id="icon-cubes" xmlns="http://www.w3.org/2000/svg"><path d="m7.5 10.714 4.5 2.572m-4.5-2.572L3 13.286m4.5-2.572V5.572m4.5 7.714v5.142L16.5 21M12 13.286l-4.5 2.572m4.5-2.572 4.5-2.572V5.572M12 13.286V8.14l4.5-2.57M12 13.287l4.5 2.57M3 13.287v5.142L7.5 21M3 13.286l4.5 2.572m0-10.286L12 3l4.5 2.572m-9 0 4.5 2.57m-4.5 7.716V21m9-5.143 4.5-2.572m-4.5 2.572V21M12 18.427 7.5 21m9 0 4.5-2.572v-5.143m-4.5-2.572 4.5 2.572" stroke="var(--icon-stroke)" stroke-width="var(--icon-stroke-width)" stroke-linecap="round" stroke-linejoin="round"/></symbol><symbol fill="none" viewBox="0 0 24 24" id="icon-home" xmlns="http://www.w3.org/2000/svg"><path d="m21 11-2-1.778M3 11l2-1.778m0 0L12 3l7 6.222m-14 0V20a1 1 0 0 0 1 1h4m9-11.778V20a1 1 0 0 1-1 1h-4m5-11.778V5m-9 16v-7h4v7m-4 0h4" stroke="var(--icon-stroke)" stroke-width="var(--icon-stroke-width)" stroke-linecap="round" stroke-linejoin="round"/></symbol><symbol fill="none" viewBox="0 0 24 24" id="icon-modal" xmlns="http://www.w3.org/2000/svg"><path d="M13 18H5a2 2 0 0 1-2-2V6a2 2 0 0 1 2-2h14a2 2 0 0 1 2 2v6m-3-5v.01M19 15v7m0-7 3 3m-3-3-3 3" stroke="var(--icon-stroke)" stroke-width="var(--icon-stroke-width)" stroke-linecap="round" stroke-linejoin="round"/></symbol><symbol fill="none" viewBox="0 0 24 24" id="icon-more" xmlns="http://www.w3.org/2000/svg"><path d="M5 13a1 1 0 1 0 0-2 1 1 0 0 0 0 2ZM12 13a1 1 0 1 0 0-2 1 1 0 0 0 0 2ZM19 13a1 1 0 1 0 0-2 1 1 0 0 0 0 2Z" stroke="var(--icon-stroke)" stroke-width="var(--icon-stroke-width)" stroke-linecap="round" stroke-linejoin="round"/></symbol><symbol fill="none" viewBox="0 0 24 24" id="icon-paperplan" xmlns="http://www.w3.org/2000/svg"><path d="m21 3-7.043 18-2.348-8.609M21 3 3 10.043l8.609 2.348M21 3l-9.391 9.391" stroke="var(--icon-stroke)" stroke-width="var(--icon-stroke-width)" stroke-linejoin="round"/></symbol><symbol fill="none" viewBox="0 0 24 24" id="icon-phone-mobile" xmlns="http://www.w3.org/2000/svg"><path d="M11 4h2m-1 13v.01M6 5a2 2 0 0 1 2-2h8a2 2 0 0 1 2 2v14a2 2 0 0 1-2 2H8a2 2 0 0 1-2-2V5Z" stroke="var(--icon-stroke)" stroke-width="var(--icon-stroke-width)" stroke-linecap="round" stroke-linejoin="round"/></symbol><symbol fill="none" viewBox="0 0 24 24" id="icon-recommendation" xmlns="http://www.w3.org/2000/svg"><path d="M10.5 16c1 .5 2 1 3.5 1h1.844m0 0H19c1.6 0 2 1.333 2 2l-7 2.5-8-2V12h2.5c1 .333 3.5 1.2 5.5 2s2.063 2.333 1.844 3Z" stroke="var(--icon-stroke)" stroke-width="var(--icon-stroke-width)" stroke-linecap="round" stroke-linejoin="round"/><path d="M2 14a2 2 0 0 1 2-2h2v9H4a2 2 0 0 1-2-2v-5Z" stroke="var(--icon-stroke)" stroke-width="var(--icon-stroke-width)"/><path d="m17 3 1.176 2.382 2.628.382-1.902 1.854.45 2.618L17 9l-2.351 1.236.449-2.618-1.902-1.854 2.628-.382L17 3Z" stroke="var(--icon-stroke)" stroke-width="var(--icon-stroke-width)" stroke-linejoin="round"/></symbol><symbol fill="none" viewBox="0 0 24 24" id="icon-search" xmlns="http://www.w3.org/2000/svg"><path d="M14.95 14.95a7 7 0 1 0-9.9-9.9 7 7 0 0 0 9.9 9.9Zm0 0L21 21" stroke="var(--icon-stroke)" stroke-width="var(--icon-stroke-width)" stroke-linecap="round" stroke-linejoin="round"/></symbol><symbol fill="none" viewBox="0 0 20 20" id="icon-sm-chevron-down" xmlns="http://www.w3.org/2000/svg"><path d="m6 8 4 4 4-4" stroke="var(--icon-stroke)" stroke-width="var(--icon-stroke-width)" stroke-linecap="round" stroke-linejoin="round"/></symbol><symbol fill="none" viewBox="0 0 20 20" id="icon-sm-x-mark" xmlns="http://www.w3.org/2000/svg"><path d="m13 7-6 6m0-6 6 6" stroke="var(--icon-stroke)" stroke-width="var(--icon-stroke-width)" stroke-linecap="round" stroke-linejoin="round"/></symbol><symbol fill="none" viewBox="0 0 24 24" id="icon-star" xmlns="http://www.w3.org/2000/svg"><path d="m12 17.75-6.172 3.245 1.179-6.873-5-4.867 6.9-1 3.086-6.253 3.086 6.253 6.9 1-5 4.867 1.179 6.873L12 17.75Z" stroke="var(--icon-stroke)" stroke-width="var(--icon-stroke-width)" stroke-linecap="round" stroke-linejoin="round"/></symbol><symbol fill="none" viewBox="0 0 24 24" id="icon-user" xmlns="http://www.w3.org/2000/svg"><path d="M6 21v-2a4 4 0 0 1 4-4h4a4 4 0 0 1 4 4v2M16 7a4 4 0 1 1-8 0 4 4 0 0 1 8 0Z" stroke="var(--icon-stroke)" stroke-width="var(--icon-stroke-width)" stroke-linecap="round" stroke-linejoin="round"/></symbol><symbol fill="none" viewBox="0 0 24 24" id="icon-warning" xmlns="http://www.w3.org/2000/svg"><path d="M12 9v2m0 4v.01M5 19h14a2 2 0 0 0 1.84-2.75L13.74 4a2 2 0 0 0-3.5 0l-7.1 12.25A2 2 0 0 0 4.89 19" stroke="var(--icon-stroke)" stroke-width="var(--icon-stroke-width)" stroke-linecap="round" stroke-linejoin="round"/></symbol></svg>