<svg width="151" height="16" viewBox="0 0 151 16" fill="none" xmlns="http://www.w3.org/2000/svg">
<g clip-path="url(#clip0_16016_2389)">
<path d="M140 0V14H151" stroke="#866969" stroke-width="4"/>
<path d="M125 0V14H136" stroke="#866969" stroke-width="4"/>
<path d="M105 0V7.6C105 9.84021 105 10.9603 105.436 11.816C105.819 12.5686 106.431 13.1805 107.184 13.564C108.04 14 109.16 14 111.4 14H112.6C114.84 14 115.96 14 116.816 13.564C117.569 13.1805 118.181 12.5686 118.564 11.816C119 10.9603 119 9.84021 119 7.6V0" stroke="#866969" stroke-width="4"/>
<g clip-path="url(#clip1_16016_2389)">
<path d="M86 16L86 7.00001M86 3.43323e-05L86 7.00001M86 7.00001L90 7.00001L101.138 17.973" stroke="#866969" stroke-width="4"/>
<path d="M90 7L101.621 -2.27459" stroke="#866969" stroke-width="3.5"/>
</g>
<path d="M78.7 5C78.7 3.34315 77.3569 2 75.7 2H68.4C66.7431 2 65.4 3.34315 65.4 5C65.4 6.65685 66.7431 8 68.4 8H76C77.6569 8 79 9.34315 79 11C79 12.6569 77.6569 14 76 14H68C66.3431 14 65 12.6569 65 11" stroke="#866969" stroke-width="4"/>
<path d="M38 2H46C47.8638 2 48.7956 2 49.5307 2.30448C50.5108 2.71046 51.2895 3.48915 51.6955 4.46927C52 5.20435 52 6.13623 52 8V8C52 9.86377 52 10.7956 51.6955 11.5307C51.2895 12.5108 50.5108 13.2895 49.5307 13.6955C48.7956 14 47.8638 14 46 14H38V2Z" stroke="#281F1F" stroke-width="4"/>
<path d="M23 0V14H34" stroke="#281F1F" stroke-width="4"/>
<rect x="2" y="2" width="14" height="12" rx="4" stroke="#281F1F" stroke-width="4"/>
</g>
<defs>
<clipPath id="clip0_16016_2389">
<rect width="151" height="16" fill="white"/>
</clipPath>
<clipPath id="clip1_16016_2389">
<rect width="18" height="16" fill="white" transform="translate(84)"/>
</clipPath>
</defs>
</svg>
